<!--?xml version="1.0" standalone="no"?-->
              <svg id="sw-js-blob-svg" viewBox="0 0 100 100" xmlns="http://www.w3.org/2000/svg" version="1.1">
                    <defs> 
                        <linearGradient id="sw-gradient" x1="0" x2="1" y1="1" y2="0">
                            <stop id="stop1" stop-color="rgba(196, 205, 255, 0.65)" offset="0%"></stop>
                            <stop id="stop2" stop-color="rgba(206, 182, 243, 0.3)" offset="100%"></stop>
                        </linearGradient>
                    </defs>
                <path fill="url(#sw-gradient)" d="M25.7,-32.1C31.2,-26.1,32,-15.9,33,-6.4C33.9,3.1,35,12,31.7,18.9C28.4,25.9,20.8,30.9,12.5,33.7C4.2,36.5,-4.8,37,-12.4,34.2C-20.1,31.4,-26.6,25.2,-31.1,17.8C-35.6,10.3,-38.2,1.6,-37.4,-7.2C-36.6,-16,-32.4,-24.9,-25.7,-30.7C-18.9,-36.5,-9.4,-39.3,0.3,-39.7C10.1,-40.2,20.3,-38.2,25.7,-32.1Z" width="100%" height="100%" transform="translate(50 50)" stroke-width="0" style="transition: all 0.3s ease 0s;"></path>
              </svg>